PathFileType	4	(X/Y/Z)	..\data\2014001\dynamic\2014001_C4_04.trc
DataRate	CameraRate	NumFrames	NumMarkers	Units	OrigDataRate	OrigDataStartFrame	OrigNumFrames
100.000000	100.000000	4	52	mm	100.000000	58	155
Frame#	Time	L_IAS			L_IPS			R_IPS			R_IAS			L_FTC			L_FLE			L_FME			L_FAX			L_TTC			L_FAL			L_TAM			L_FCC			L_FM1			L_FM2			L_FM5			R_FTC			R_FLE			R_FME			R_FAX			R_TTC			R_FAL			R_TAM			R_FCC			R_FM1			R_FM2			R_FM5			CV7			TV10			SXS			SJN			L_SIA			L_SRS			L_SAA			L_SAE			L_HLE			L_HME			L_UOA			L_RSP			L_UHE			L_HM2			L_HM5			R_SIA			R_SRS			R_SAA			R_SAE			R_HLE			R_HME			R_UOA			R_RSP			R_UHE			R_HM2			R_HM5			
		X1	Y1	Z1	X2	Y2	Z2	X3	Y3	Z3	X4	Y4	Z4	X5	Y5	Z5	X6	Y6	Z6	X7	Y7	Z7	X8	Y8	Z8	X9	Y9	Z9	X10	Y10	Z10	X11	Y11	Z11	X12	Y12	Z12	X13	Y13	Z13	X14	Y14	Z14	X15	Y15	Z15	X16	Y16	Z16	X17	Y17	Z17	X18	Y18	Z18	X19	Y19	Z19	X20	Y20	Z20	X21	Y21	Z21	X22	Y22	Z22	X23	Y23	Z23	X24	Y24	Z24	X25	Y25	Z25	X26	Y26	Z26	X27	Y27	Z27	X28	Y28	Z28	X29	Y29	Z29	X30	Y30	Z30	X31	Y31	Z31	X32	Y32	Z32	X33	Y33	Z33	X34	Y34	Z34	X35	Y35	Z35	X36	Y36	Z36	X37	Y37	Z37	X38	Y38	Z38	X39	Y39	Z39	X40	Y40	Z40	X41	Y41	Z41	X42	Y42	Z42	X43	Y43	Z43	X44	Y44	Z44	X45	Y45	Z45	X46	Y46	Z46	X47	Y47	Z47	X48	Y48	Z48	X49	Y49	Z49	X50	Y50	Z50	X51	Y51	Z51	X52	Y52	Z52	

59	0.58	651.6123657226564	853.0228271484377	-406.2060852050782	468.4709472656251	883.0101318359377	-340.1721496582032	466.2269287109376	883.1944580078127	-251.8226928710938	640.7282714843751	845.4717407226565	-167.143310546875	588.5905761718751	764.7678833007814	-468.7615356445314	736.0164184570314	440.262908935547	-428.3297119140626	750.7669067382814	441.5906372070314	-312.1265869140626	732.9416503906251	376.2380981445313	-430.931365966797	798.2681274414065	373.5363464355469	-382.3172302246094	773.9268188476565	61.0609588623047	-387.5781555175782	797.6931152343752	76.38961791992189	-300.7350463867188	736.1766967773439	17.7000961303711	-338.5815124511719	916.878601074219	43.68695068359376	-323.6224670410157	917.900329589844	50.12490081787111	-383.5298767089844	869.512145996094	28.50307083129884	-421.019256591797	525.8115844726564	760.3654785156251	-114.3949890136719	428.4554748535157	430.128875732422	-155.9375	447.3017578125001	408.2475585937501	-275.8574218750001	377.9807128906251	379.2039794921876	-156.0455932617188	432.6273193359376	340.1577148437501	-199.349105834961	174.5328216552735	137.1484985351563	-211.2079162597657	221.6667785644532	131.7147064208985	-292.5506286621094	126.1523513793946	130.6942596435547	-271.7079772949219	267.3818969726563	24.87551879882813	-288.4395751953126	271.3618164062501	32.33842086791993	-225.3282775878907	214.6040191650391	34.12505340576173	-183.2277069091797	497.5584716796876	1347.203247070313	-300.7501831054688	439.1887512207032	1114.121337890625	-294.5392456054688	671.5017700195314	1123.079467773438	-311.1243896484376	626.0097656250001	1283.999267578125	-311.1900939941407	428.2947998046876	1149.899169921875	-386.0875549316407	450.029510498047	1282.323486328125	-384.8420715332032	514.9612426757814	1274.233764648438	-497.0714416503907	556.6181640625001	1285.80517578125	-487.9904785156251	494.628875732422	1009.585998535156	-559.1235351562501	478.1546630859376	978.1016235351565	-480.8545227050782	464.0135192871095	986.5729980468752	-527.1402587890626	517.9434204101564	762.1282348632814	-561.5729370117189	464.0209350585939	784.6345825195315	-617.2611083984376	506.0235900878907	672.8568115234376	-578.4197387695314	428.9375305175782	716.0770874023439	-625.7422485351564	442.4794921875001	1157.87255859375	-179.6853332519532	463.3452148437501	1282.112426757813	-208.0178527832032	548.3316040039064	1281.261108398438	-110.8579406738282	594.1541137695314	1287.8818359375	-128.567626953125	605.6430664062501	990.026062011719	-25.37949943542481	575.9045410156251	961.0228271484377	-97.25914001464847	584.1615600585939	952.1531982421877	-50.97448730468751	790.9822998046877	866.7310791015627	-79.05150604248048	756.7490234375001	833.4757080078127	-15.699294090271	871.6348266601565	819.0169677734377	-67.03651428222658	797.4370727539065	766.1329345703126	-19.6201400756836	
60	0.59	667.9542846679689	855.473327636719	-408.2351379394532	484.8293457031251	884.376403808594	-340.6806335449219	482.3169860839845	883.8907470703127	-251.9522399902344	657.9270629882814	845.8149414062502	-169.316146850586	604.9948120117189	767.1455078125001	-470.3798217773439	751.6171875000001	441.5137329101564	-428.9205627441407	765.9774169921876	443.2005310058595	-313.1100463867188	747.4666748046876	377.3923034667969	-431.6773376464845	811.7729492187502	372.9018859863282	-382.2197570800782	776.1431884765627	60.6802215576172	-387.5242614746095	799.5333251953127	74.8842010498047	-300.2153015136719	735.9932250976564	18.31003952026368	-339.1716003417969	918.2986450195315	37.50885009765626	-321.5641174316407	920.6223754882815	44.65233230590821	-381.9836730957032	870.5244750976565	25.69822120666505	-420.9066772460939	543.7404785156251	759.7019653320314	-116.1796264648438	448.9548645019532	429.1294250488282	-155.0180053710938	469.009002685547	405.842498779297	-274.7766723632813	397.4189453125001	379.7691345214844	-154.9593811035157	451.6827087402345	338.6398315429688	-197.1336669921876	185.9490661621094	145.4051666259766	-209.7076873779297	233.3785400390626	137.1807708740235	-290.4041748046876	138.7262878417969	142.3456726074219	-270.7602539062501	269.1798400878907	26.92296791076661	-288.3398132324219	272.6813049316407	33.37266921997071	-225.5912475585938	218.1583251953126	38.68221282958985	-183.5290222167969	512.2987060546876	1348.077758789063	-302.0829772949219	454.9769287109376	1114.601684570313	-295.7476501464844	687.3507080078126	1124.994262695313	-312.7449035644532	640.9152832031251	1285.598754882813	-312.6160583496094	443.7843627929689	1150.484130859375	-387.7099914550782	465.0404052734376	1282.942260742188	-386.3553161621095	530.2040405273439	1275.336791992188	-498.6066894531251	571.7549438476564	1287.1005859375	-489.3836364746095	511.9154663085939	1010.082153320313	-560.1216430664064	495.3137817382814	978.7626953125002	-481.7962341308595	481.2395935058595	986.8861083984377	-528.2138671875001	537.9096069335939	762.8771972656251	-561.3191528320314	483.9774780273439	784.514099121094	-617.3285522460939	526.9174194335939	673.4139404296876	-577.7086181640626	449.6527709960939	715.4990234375001	-625.5900268554689	457.8440246582032	1158.43896484375	-181.208236694336	478.0836791992189	1282.826416015625	-209.4990234375001	562.9808349609376	1282.246215820313	-112.3391723632813	608.8377685546876	1289.075561523438	-129.8800964355469	617.7770996093751	990.7205200195315	-27.95815467834473	588.5582885742189	962.2178344726565	-100.2321472167969	595.9233398437501	953.2683715820315	-53.73939514160158	801.557800292969	863.4663696289065	-80.39192199707033	765.9266357421876	830.9206542968752	-17.23551177978516	880.9471435546877	814.278991699219	-67.74387359619142	805.268005371094	762.8460693359376	-20.85546112060547	
61	0.6	684.1181640625001	857.954040527344	-410.3269042968751	501.0538635253907	885.9697265625002	-341.4201354980469	498.1190490722657	884.8317871093752	-252.3168029785157	674.8024902343751	846.5447998046877	-171.530990600586	621.1390380859376	769.5372314453127	-472.0660400390626	766.0362548828126	442.4471130371095	-429.6355895996095	780.1340332031252	444.4297485351564	-314.1224975585938	760.8019409179689	378.3182373046876	-432.5120239257814	824.1547851562502	372.1426391601563	-382.3682556152344	778.0733642578127	60.57706832885744	-387.5260314941407	801.0571899414065	73.85108184814455	-299.7965393066407	735.9650268554689	18.98595809936524	-339.8034362792969	919.337829589844	32.67503356933594	-319.6533508300782	922.948913574219	40.5063591003418	-380.5889892578126	871.4086914062502	23.88047790527344	-420.9230346679689	561.5426635742189	759.2960815429689	-118.1069259643555	470.7559204101564	427.9940185546876	-153.9144897460938	492.2218322753907	403.2614746093751	-273.4216308593751	418.3839111328126	380.2589721679688	-153.6593170166016	472.2225341796876	337.0820617675782	-194.7350006103516	199.2304382324219	154.0956268310547	-208.3279876708985	246.8760070800782	142.9204406738282	-288.3570556640626	153.2843933105469	154.3439331054688	-270.0002746582032	272.5214538574219	29.66590690612794	-287.9082946777344	275.4207763671876	35.08757019042969	-225.5681304931641	223.2237548828126	44.28289413452149	-183.7266693115235	527.0051879882814	1349.280883789063	-303.3102416992188	470.6758117675782	1115.429443359375	-296.9754638671876	703.1312866210939	1127.238647460938	-314.2358093261719	655.7717285156251	1287.545532226563	-313.9401550292969	459.2818603515626	1151.392944335938	-389.2814025878907	480.0059204101564	1283.871704101563	-387.7770080566407	545.4291992187501	1276.79736328125	-500.0467834472657	586.8757324218751	1288.75830078125	-490.6666259765626	529.3927612304689	1010.900695800781	-561.0878906250001	512.5754394531251	979.7438964843752	-482.7381286621095	498.616668701172	987.461608886719	-529.3059692382814	558.5407714843751	764.0266113281251	-560.8564453125001	504.6325988769532	784.6345214843752	-617.2592773437501	548.7673339843751	674.3728637695314	-576.7178955078126	471.233123779297	715.0567016601564	-625.2575073242189	473.1864624023439	1159.343139648438	-182.629623413086	492.7674560546876	1283.876220703125	-210.8777923583985	577.5977172851564	1283.603271484375	-113.7308959960938	623.4754028320314	1290.63818359375	-131.1057739257813	629.7780761718751	991.7864990234377	-30.52189826965333	601.0603637695314	963.8389892578127	-103.1957015991211	607.4916992187501	954.8175048828127	-56.47585678100587	811.5755615234377	860.014587402344	-81.76548004150392	774.439392089844	828.4145507812502	-18.73654174804688	889.4353637695315	809.071228027344	-68.54405975341798	812.1763916015627	759.4756469726564	-22.03604125976563	
62	0.61	700.0938720703126	860.3799438476565	-412.4258728027345	517.1152954101564	887.7683715820315	-342.4259338378907	513.6209106445314	886.0059814453127	-252.9751434326172	691.2680664062501	847.6451416015627	-173.7211456298828	637.0193481445314	771.8908691406252	-473.7947082519532	779.1624755859377	443.0297241210939	-430.4559020996095	793.1013793945315	445.2305297851564	-315.1249084472657	772.8177490234377	378.9680786132813	-433.4070129394532	835.3144531250002	371.2308959960938	-382.7431945800782	779.7297363281252	60.68385696411134	-387.5440979003907	802.3191528320315	73.23207855224611	-299.4595031738282	736.1156005859376	19.6705493927002	-340.4111022949219	920.0786743164065	29.15168380737305	-317.9572448730469	924.8961181640627	37.62359237670899	-379.3894653320313	872.1899414062502	22.92954254150391	-421.038543701172	579.1094970703126	759.1774902343751	-120.1512680053711	493.8008728027345	426.7787170410157	-152.637451171875	516.8419799804689	400.6155395507814	-271.8160095214844	440.8444213867189	380.6907348632813	-152.15771484375	494.2014160156251	335.5470581054688	-192.2269744873047	214.4326477050782	163.0920867919922	-207.1094360351563	262.2103271484376	148.867416381836	-286.4695739746094	169.8146514892578	166.4351654052735	-269.4527587890626	277.8585205078126	33.07563018798829	-287.0280761718751	280.0519714355469	37.53988265991212	-225.1381988525391	230.165512084961	50.88949584960939	-183.7390441894532	541.6624755859376	1350.784912109375	-304.4297790527344	486.2542419433595	1116.583251953125	-298.2460937500001	718.8034667968751	1129.747924804688	-315.5741882324219	670.5655517578126	1289.786376953125	-315.1410217285157	474.7727355957032	1152.603637695313	-390.8036499023439	494.916229248047	1285.099365234375	-389.1083374023439	560.6357421875001	1278.57861328125	-501.3862304687501	601.9799194335939	1290.739501953125	-491.8309020996095	547.0407104492189	1012.014343261719	-562.0194702148439	529.9100341796876	981.0087890625002	-483.6825561523439	516.1269531250001	988.268737792969	-530.4179687500001	579.7827148437501	765.5615844726564	-560.1826171875001	525.9514770507814	784.9929809570315	-617.0550537109376	571.5187988281251	675.7356567382814	-575.4732666015626	493.6486206054689	714.7661132812501	-624.7634887695314	488.4556884765626	1160.551147460938	-183.9731903076172	507.3852844238282	1285.225830078125	-212.1546478271485	592.1499023437501	1285.274658203125	-115.0197219848633	638.0382690429689	1292.508666992188	-132.2316436767578	641.6983032226564	993.169616699219	-33.04068756103516	613.4247436523439	965.827331542969	-106.09912109375	618.9310302734376	956.739929199219	-59.15671157836915	821.0589599609377	856.411071777344	-83.1616668701172	782.3479614257815	825.990661621094	-20.18116188049317	897.1089477539065	803.447448730469	-69.44918060302736	818.222351074219	756.0760498046876	-23.15135765075684	
